# xmcd
#
# Track frame offsets:
#	150
#	12670
#	26767
#	45020
#	59605
#	78202
#	92722
#	109017
#	123332
#	143410
#	159600
#	174447
#	192710
#	207340
#	225727
#	242275
#
# Disc length: 3473 seconds
#
# Revision: 1
# Processed by: cddbd v1.5.1PL0 Copyright (c) Steve Scherf et al.
# Submitted via: CDex 1.50Beta5
#
DISCID=cb0d8f10
DTITLE=藤山一郎 - 青い山脈
DYEAR=1990
DGENRE=
TTITLE0=懐しのボレロ
TTITLE1=銀座セレナーデ
TTITLE2=三日月娘
TTITLE3=白鳥の歌
TTITLE4=夢淡き東京
TTITLE5=みどりの歌
TTITLE6=青い月の夜は
TTITLE7=青い山脈
TTITLE8=長崎の鐘
TTITLE9=花の素顔
TTITLE10=山のかなたに
TTITLE11=長崎の雨
TTITLE12=丘は花ざかり
TTITLE13=ニコライの鏡
TTITLE14=みどりの雨
TTITLE15=ブンガワンソロ
EXTD=
EXTT0=
EXTT1=
EXTT2=
EXTT3=
EXTT4=
EXTT5=
EXTT6=
EXTT7=
EXTT8=
EXTT9=
EXTT10=
EXTT11=
EXTT12=
EXTT13=
EXTT14=
EXTT15=
PLAYORDER=
